<svg width="24" height="24" viewBox="0 0 24 24" fill="none" xmlns="http://www.w3.org/2000/svg">
<path d="M10 17.1V15.15H8V13.2H10V11.25H12V13.2H14V15.15H12V17.1H10Z" fill="#E07F82"/>
<path fill-rule="evenodd" clip-rule="evenodd" d="M6 3C4.34315 3 3 4.30957 3 5.925V18.075C3 19.6904 4.34315 21 6 21H18C19.6569 21 21 19.6904 21 18.075V9.825C21 6.05566 17.866 3 14 3H6ZM6 4.95H13V9.825H19V18.075C19 18.6135 18.5523 19.05 18 19.05H6C5.44772 19.05 5 18.6135 5 18.075V5.925C5 5.38652 5.44772 4.95 6 4.95ZM15 5.04752C16.6113 5.36642 17.9413 6.44083 18.584 7.875H15V5.04752Z" fill="#E07F82"/>
</svg>
